<svg xmlns="http://www.w3.org/2000/svg" viewBox="0 0 64 64">
  <title>Scorebook</title>
  <rect x="4" y="4" width="56" height="56" rx="12" fill="#f6f4ee"/>
  <path d="M18 14h24a8 8 0 0 1 8 8v28H18z" fill="#fefcf7" stroke="#2b3a42" stroke-width="3"/>
  <path d="M18 14h8v36h-8a6 6 0 0 1-6-6V20a6 6 0 0 1 6-6z" fill="#dbe6ef" stroke="#2b3a42" stroke-width="3"/>
  <line x1="28" y1="24" x2="46" y2="24" stroke="#2b3a42" stroke-width="2"/>
  <line x1="28" y1="28" x2="46" y2="28" stroke="#2b3a42" stroke-width="2"/>
  <line x1="28" y1="32" x2="46" y2="32" stroke="#2b3a42" stroke-width="2"/>
  <line x1="28" y1="36" x2="46" y2="36" stroke="#2b3a42" stroke-width="2"/>
  <line x1="28" y1="40" x2="46" y2="40" stroke="#2b3a42" stroke-width="2"/>
  <circle cx="35" cy="39" r="3" fill="#0f766e"/>
  <line x1="38" y1="24" x2="38" y2="39" stroke="#0f766e" stroke-width="2.6" stroke-linecap="round"/>
</svg>
